<svg width="20" height="22" viewBox="0 0 20 22" fill="none" xmlns="http://www.w3.org/2000/svg">
<path d="M14.2857 0.857147C14.7591 0.857147 15.1429 1.2409 15.1429 1.71429L15.1435 2.70842C15.8633 2.82295 16.3294 3.00795 16.7976 3.25835C17.6357 3.70656 18.2934 4.36431 18.7417 5.2024C19.1489 5.96382 19.3831 6.71964 19.4226 8.57064L19.4286 8.57143V14.8357L19.424 15.3586C19.389 17.2613 19.154 18.0266 18.7417 18.7976C18.2934 19.6357 17.6357 20.2934 16.7976 20.7417C15.9595 21.1899 15.1282 21.4286 12.8357 21.4286H7.16427L6.64138 21.424C4.73874 21.389 3.97344 21.154 3.20239 20.7417C2.3643 20.2934 1.70656 19.6357 1.25834 18.7976C0.828049 17.993 0.590857 17.1947 0.57257 15.1039L0.571426 9.16428V8.57143C0.616856 6.71964 0.851128 5.96382 1.25834 5.2024C1.70656 4.36431 2.3643 3.70656 3.20239 3.25835C3.67078 3.00785 4.13704 2.8228 4.85741 2.70828L4.85714 1.71429C4.85714 1.2409 5.2409 0.857147 5.71428 0.857147C6.18767 0.857147 6.57143 1.2409 6.57143 1.71429L6.57063 2.5774C6.75703 2.57343 6.95454 2.57143 7.16427 2.57143H12.8357C13.0458 2.57143 13.2436 2.57344 13.4302 2.57742L13.4286 1.71429C13.4286 1.2409 13.8123 0.857147 14.2857 0.857147ZM17.7134 10.2857H2.28571L2.2865 15.0783L2.29409 15.5658C2.32741 16.8577 2.46391 17.4168 2.77002 17.9892C3.05847 18.5285 3.4715 18.9415 4.01085 19.23C4.65055 19.5721 5.27366 19.7024 6.92175 19.7135H13.0782L13.5658 19.7059C14.8577 19.6726 15.4168 19.5361 15.9891 19.23C16.5285 18.9415 16.9415 18.5285 17.23 17.9892C17.5721 17.3494 17.7024 16.7263 17.7135 15.0783L17.7134 10.2857ZM14.3252 14.5714C14.6961 14.5714 14.9882 14.6411 15.2326 14.7718C15.4771 14.9025 15.6689 15.0944 15.7996 15.3388C15.9304 15.5832 16 15.8753 16 16.2463V16.3252C16 16.6961 15.9304 16.9882 15.7996 17.2326C15.6689 17.4771 15.4771 17.6689 15.2326 17.7997C14.9882 17.9304 14.6961 18 14.3252 18H14.2463C13.8753 18 13.5832 17.9304 13.3388 17.7997C13.0943 17.6689 12.9025 17.4771 12.7718 17.2326C12.641 16.9882 12.5714 16.6961 12.5714 16.3252V16.2463C12.5714 15.8753 12.641 15.5832 12.7718 15.3388C12.9025 15.0944 13.0943 14.9025 13.3388 14.7718C13.5832 14.6411 13.8753 14.5714 14.2463 14.5714H14.3252ZM13.0782 4.28651H6.92175L6.57143 4.29086V5.14286C6.57143 5.61625 6.18767 6 5.71428 6C5.2409 6 4.85714 5.61625 4.85714 5.14286L4.8565 4.45073C4.53019 4.52608 4.2719 4.63041 4.01085 4.77003C3.4715 5.05847 3.05847 5.47151 2.77002 6.01086C2.45337 6.60293 2.31821 7.1808 2.29101 8.57027L17.7083 8.57143L17.7059 8.43416C17.6726 7.14231 17.5361 6.58322 17.23 6.01086C16.9415 5.47151 16.5285 5.05847 15.9891 4.77003C15.7282 4.63045 15.4699 4.52613 15.1437 4.45078L15.1429 5.14286C15.1429 5.61625 14.7591 6 14.2857 6C13.8123 6 13.4286 5.61625 13.4286 5.14286L13.4306 4.29103C13.3186 4.28883 13.2013 4.28734 13.0782 4.28651Z" fill="#EB5757"/>
</svg>
