<svg width="14" height="20" viewBox="0 0 14 20" fill="none" xmlns="http://www.w3.org/2000/svg">
<path d="M13 17.8572C13.4734 17.8572 13.8571 18.2409 13.8571 18.7143C13.8571 19.1877 13.4734 19.5714 13 19.5714H0.999996C0.526609 19.5714 0.142853 19.1877 0.142853 18.7143C0.142853 18.2409 0.526609 17.8572 0.999996 17.8572H13ZM7 0.714294C7.47338 0.714294 7.85714 1.09805 7.85714 1.57144V13.2157L12.3939 8.67963C12.7286 8.3449 13.2714 8.3449 13.6061 8.67963C13.9408 9.01437 13.9408 9.55708 13.6061 9.89181L7.60609 15.8918C7.27135 16.2266 6.72864 16.2266 6.3939 15.8918L0.393904 9.89181C0.0591692 9.55708 0.0591692 9.01437 0.393904 8.67963C0.728639 8.3449 1.27135 8.3449 1.60609 8.67963L6.14285 13.2157V1.57144C6.14285 1.09805 6.52661 0.714294 7 0.714294Z" fill="#EB5757"/>
</svg>
